<svg id="bold" enable-background="new 0 0 24 24" height="512" viewBox="0 0 24 24" width="512" xmlns="http://www.w3.org/2000/svg" fill="#e2e2e2"><path d="m18.25 13h-12.5c-.965 0-1.75-.785-1.75-1.75v-1.5c0-.965.785-1.75 1.75-1.75h12.5c.965 0 1.75.785 1.75 1.75v1.5c0 .965-.785 1.75-1.75 1.75z"/><path d="m18.75 20h-1.5c-.689 0-1.25-.561-1.25-1.25v-2.5c0-.689.561-1.25 1.25-1.25h1.5c.689 0 1.25.561 1.25 1.25v2.5c0 .689-.561 1.25-1.25 1.25z"/><path d="m6.75 20h-1.5c-.689 0-1.25-.561-1.25-1.25v-2.5c0-.689.561-1.25 1.25-1.25h1.5c.689 0 1.25.561 1.25 1.25v2.5c0 .689-.561 1.25-1.25 1.25z"/><path d="m12.75 20h-1.5c-.689 0-1.25-.561-1.25-1.25v-2.5c0-.689.561-1.25 1.25-1.25h1.5c.689 0 1.25.561 1.25 1.25v2.5c0 .689-.561 1.25-1.25 1.25z"/><path d="m21 1h-18c-1.654 0-3 1.346-3 3v16c0 1.654 1.346 3 3 3h18c1.654 0 3-1.346 3-3v-16c0-1.654-1.346-3-3-3zm0 20h-18c-.551 0-1-.448-1-1v-14h20v14c0 .552-.449 1-1 1z"/></svg>
